<svg width="325" height="302" viewBox="0 0 325 302" fill="none" xmlns="http://www.w3.org/2000/svg">
<path d="M148.143 225.687C175.489 215.018 170.677 272.801 188.053 276.25C205.43 279.7 216.18 248.878 233.557 252.327C250.933 255.776 256.794 272.742 274.17 276.191C291.547 279.64 291.767 256.11 322.669 260.33" stroke="white" stroke-width="4" stroke-linecap="round" stroke-dasharray="8 8"/>
<path d="M6.56655 217.624C6.56655 217.624 32.661 209.821 46.1959 183.774C59.7307 157.727 81.8769 192.041 97.2191 183.183C112.561 174.325 112.65 156.376 127.992 147.518C143.334 138.661 158.923 147.558 174.265 138.7C189.608 129.843 174.863 109.488 200.289 94.8084C225.714 80.1291 228 99.5 252.5 91.5" stroke="white" stroke-width="2" stroke-linecap="round" stroke-dasharray="2 10"/>
<path d="M21 30.5C21 30.5 30.5871 2 50.5 2C70.4129 2 80.5871 30.5 100.5 30.5C120.413 30.5 130.587 2 150.5 2C170.413 2 180.587 30.5 200.5 30.5C220.413 30.5 217.5 2 250.5 2C283.5 2 311 20 311 20" stroke="white" stroke-width="4" stroke-linecap="round"/>
</svg>
