<svg width="325" height="234" viewBox="0 0 325 234" fill="none" xmlns="http://www.w3.org/2000/svg">
<path id="sec-pattern-1" d="M148.143 157.687C175.489 147.018 170.677 204.801 188.053 208.25C205.43 211.7 216.18 180.878 233.557 184.327C250.933 187.776 256.794 204.742 274.17 208.191C291.547 211.64 291.767 188.11 322.669 192.33" stroke="white" stroke-width="4" stroke-linecap="round" stroke-dasharray="8 8"/>
<path d="M6.56655 149.624C6.56655 149.624 32.661 141.821 46.1959 115.774C59.7307 89.7274 81.8769 124.041 97.2191 115.183C112.561 106.325 112.65 88.3762 127.992 79.5184C143.334 70.6606 158.923 79.5583 174.265 70.7004C189.608 61.8426 174.863 41.4877 200.289 26.8084C225.714 12.1291 228 31.5 252.5 23.5" stroke="white" stroke-width="2" stroke-linecap="round" stroke-dasharray="2 10"/>
</svg>
