<svg width="1614" height="1426" viewBox="0 0 1614 1426" fill="none" xmlns="http://www.w3.org/2000/svg">
<path d="M1607 1006C1607 1038.03 1581.26 1064 1549.5 1064C1517.74 1064 1492 1038.03 1492 1006" stroke="white" stroke-width="13" stroke-linecap="round" stroke-linejoin="round"/>
<path d="M1607 162C1567.23 162 1535 129.541 1535 89.5C1535 49.4593 1567.23 17 1607 17" stroke="url(#paint0_linear_0_891)" stroke-width="13" stroke-linecap="round" stroke-linejoin="round"/>
<path d="M569 75.9061C569 109.095 595.863 136 629 136C662.137 136 689 109.095 689 75.9061V8" stroke="white" stroke-width="13" stroke-linecap="round" stroke-linejoin="round"/>
<path d="M144.235 1419C69.547 1419 9 1358.79 9 1284.5C9 1210.21 69.547 1150 144.235 1150H268" stroke="url(#paint1_linear_0_891)" stroke-width="13" stroke-linecap="round" stroke-linejoin="round"/>
<path d="M135.98 1327C111.138 1327 91 1307.53 91 1283.5C91 1259.47 111.138 1240 135.98 1240H184" stroke="white" stroke-width="13" stroke-linecap="round" stroke-linejoin="round"/>
<path d="M273 8.00047L76.6271 8C38.1732 8 7 38.4447 7 76" stroke="white" stroke-width="13" stroke-linecap="round" stroke-linejoin="round"/>
<path d="M1125 10.0006L1376.74 10C1426.04 10 1466 49.8467 1466 99" stroke="#C800FF" stroke-width="13" stroke-linecap="round" stroke-linejoin="round"/>
<path d="M1607 469V300.681C1607 267.72 1580.13 241 1547 241C1513.87 241 1487 267.72 1487 300.681V326.734" stroke="#8000FF" stroke-width="13" stroke-linecap="round" stroke-linejoin="round"/>
<path d="M680 979.036C683.59 979.036 686.5 976.126 686.5 972.536C686.5 968.946 683.59 966.036 680 966.036V979.036ZM574.622 1141.96C578.212 1141.96 581.122 1139.05 581.122 1135.46C581.122 1131.87 578.212 1128.96 574.622 1128.96V1141.96ZM373.84 1425.5C377.43 1425.5 380.34 1422.59 380.34 1419C380.34 1415.41 377.43 1412.5 373.84 1412.5V1425.5ZM581.655 1220.05C581.655 1216.46 578.745 1213.55 575.155 1213.55C571.565 1213.55 568.655 1216.46 568.655 1220.05H581.655ZM403.262 595C403.262 591.41 400.351 588.5 396.762 588.5C393.172 588.5 390.262 591.41 390.262 595H403.262ZM673.5 886.376C673.5 889.966 676.41 892.876 680 892.876C683.59 892.876 686.5 889.966 686.5 886.376H673.5ZM680 966.036H500.563V979.036H680V966.036ZM500.563 966.036C451.778 966.036 412.169 1005.39 412.169 1054H425.169C425.169 1012.63 458.892 979.036 500.563 979.036V966.036ZM412.169 1054C412.169 1102.61 451.778 1141.96 500.563 1141.96V1128.96C458.892 1128.96 425.169 1095.36 425.169 1054H412.169ZM500.563 1141.96H574.622V1128.96H500.563V1141.96ZM373.84 1412.5H363.143V1425.5H373.84V1412.5ZM363.143 1412.5C335.181 1412.5 312.5 1389.8 312.5 1361.8H299.5C299.5 1396.97 327.988 1425.5 363.143 1425.5V1412.5ZM312.5 1361.8C312.5 1333.78 335.182 1311.08 363.143 1311.08V1298.08C327.987 1298.08 299.5 1326.62 299.5 1361.8H312.5ZM363.143 1311.08H490.723V1298.08H363.143V1311.08ZM490.723 1311.08C540.95 1311.08 581.655 1270.32 581.655 1220.05H568.655C568.655 1263.15 533.756 1298.08 490.723 1298.08V1311.08ZM390.262 595V659.285H403.262V595H390.262ZM390.262 659.285C390.262 741.172 456.569 807.566 538.38 807.566V794.566C463.763 794.566 403.262 734.007 403.262 659.285H390.262ZM538.38 807.566H594.787V794.566H538.38V807.566ZM594.787 807.566C638.252 807.566 673.5 842.844 673.5 886.376H686.5C686.5 835.678 645.445 794.566 594.787 794.566V807.566Z" fill="#8000FF"/>
<path fill-rule="evenodd" clip-rule="evenodd" d="M595 440C617.091 440 635 422.091 635 400C635 377.909 617.091 360 595 360C572.909 360 555 377.909 555 400C555 422.091 572.909 440 595 440Z" stroke="white" stroke-width="13" stroke-linecap="round" stroke-linejoin="round"/>
<path fill-rule="evenodd" clip-rule="evenodd" d="M705 1260C737.033 1260 763 1234.26 763 1202.5C763 1170.74 737.033 1145 705 1145C672.967 1145 647 1170.74 647 1202.5C647 1234.26 672.967 1260 705 1260Z" stroke="url(#paint2_linear_0_891)" stroke-width="13" stroke-linecap="round" stroke-linejoin="round"/>
<path fill-rule="evenodd" clip-rule="evenodd" d="M191 327C225.794 327 254 298.794 254 264C254 229.206 225.794 201 191 201C156.206 201 128 229.206 128 264C128 298.794 156.206 327 191 327Z" stroke="white" stroke-width="13" stroke-linecap="round" stroke-linejoin="round"/>
<path d="M191.5 401C269.095 401 332 338.992 332 262.5C332 186.008 269.095 124 191.5 124C113.905 124 51 186.008 51 262.5" stroke="url(#paint3_linear_0_891)" stroke-width="13" stroke-linecap="round" stroke-linejoin="round"/>
<path d="M1318.21 1231.46C1296.86 1311.27 1343.04 1393.01 1421.35 1414.04C1499.65 1435.05 1580.44 1387.39 1601.79 1307.57C1623.14 1227.76 1576.96 1146.02 1498.65 1125" stroke="white" stroke-width="13" stroke-linecap="round" stroke-linejoin="round"/>
<path d="M488.83 1226.5C492.42 1226.5 495.33 1223.59 495.33 1220C495.33 1216.41 492.42 1213.5 488.83 1213.5V1226.5ZM363.371 966.553C365.128 963.423 364.016 959.46 360.886 957.703C357.755 955.945 353.793 957.058 352.036 960.188L363.371 966.553ZM594 888.5C597.59 888.5 600.5 885.59 600.5 882C600.5 878.41 597.59 875.5 594 875.5V888.5ZM395.363 908.169C392.531 910.375 392.024 914.459 394.23 917.291C396.436 920.123 400.52 920.63 403.352 918.424L395.363 908.169ZM488.83 1213.5C408.007 1213.5 341.5 1141.54 341.5 1051.51H328.5C328.5 1147.59 399.739 1226.5 488.83 1226.5V1213.5ZM341.5 1051.51C341.5 1020.32 349.516 991.227 363.371 966.553L352.036 960.188C337.093 986.799 328.5 1018.08 328.5 1051.51H341.5ZM594 875.5H489.203V888.5H594V875.5ZM489.203 875.5C454.131 875.5 421.712 887.642 395.363 908.169L403.352 918.424C427.566 899.561 457.208 888.5 489.203 888.5V875.5Z" fill="#8000FF"/>
<path d="M335.5 421C303.743 421 278 446.743 278 478.5C278 510.257 303.743 536 335.5 536C367.257 536 393 510.257 393 478.5V421" stroke="white" stroke-width="13" stroke-linecap="round" stroke-linejoin="round"/>
<path d="M353 84.5C353 126.75 387.026 161 429 161C470.974 161 505 126.75 505 84.5C505 42.2502 470.974 8 429 8H353" stroke="url(#paint4_linear_0_891)" stroke-width="13" stroke-linecap="round" stroke-linejoin="round"/>
<path d="M78.5 873.582C41.7731 873.582 12 844.127 12 807.791C12 771.455 41.7731 742 78.5 742C115.227 742 145 771.455 145 807.791V1009" stroke="white" stroke-width="13" stroke-linecap="round" stroke-linejoin="round"/>
<path d="M1468.99 877C1468.99 910.689 1495.86 938 1529 938C1562.14 938 1589 910.689 1589 877C1589 843.311 1562.14 816 1529 816H1328" stroke="white" stroke-width="13" stroke-linecap="round" stroke-linejoin="round"/>
<path d="M973 146.791C937.654 146.791 909 175.043 909 209.895C909 244.747 937.654 273 973 273C1008.35 273 1037 244.747 1037 209.895V7" stroke="#9844AF" stroke-width="13" stroke-linecap="round" stroke-linejoin="round"/>
<path d="M921.919 1361C921.919 1328.97 947.681 1303 979.459 1303C1011.24 1303 1037 1328.97 1037 1361C1037 1393.03 1011.24 1419 979.459 1419H888" stroke="white" stroke-width="13" stroke-linecap="round" stroke-linejoin="round"/>
<path d="M1096.5 569.578C1128.26 569.578 1154 595.191 1154 626.789C1154 658.386 1128.26 684 1096.5 684C1064.74 684 1039 658.386 1039 626.789V413" stroke="#8000FF" stroke-width="13" stroke-linecap="round" stroke-linejoin="round"/>
<path d="M69.5 575.708C37.7436 575.708 12 601.069 12 632.354C12 663.639 37.7436 689 69.5 689C101.256 689 127 663.639 127 632.354V401" stroke="#8000FF" stroke-width="13" stroke-linecap="round" stroke-linejoin="round"/>
<path d="M695.704 401C695.704 344.115 650.327 298 594.352 298C538.377 298 493 344.115 493 401C493 457.885 538.377 504 594.352 504H860" stroke="url(#paint5_linear_0_891)" stroke-width="13" stroke-linecap="round" stroke-linejoin="round"/>
<path d="M1505.64 734C1561.63 734 1607 687.885 1607 631C1607 574.115 1561.63 528 1505.64 528H1240" stroke="white" stroke-width="13" stroke-linecap="round" stroke-linejoin="round"/>
<path fill-rule="evenodd" clip-rule="evenodd" d="M1114 182.5C1114 129.204 1156.74 86 1209.46 86H1307.54C1360.26 86 1403 129.204 1403 182.5V182.5C1403 235.796 1360.26 279 1307.54 279H1209.46C1156.74 279 1114 235.796 1114 182.5V182.5Z" stroke="#8000FF" stroke-width="13" stroke-linecap="round" stroke-linejoin="round"/>
<path fill-rule="evenodd" clip-rule="evenodd" d="M273.5 878C240.639 878 214 851.406 214 818.6V649.4C214 616.594 240.639 590 273.5 590V590C306.361 590 333 616.594 333 649.4V818.6C333 851.406 306.361 878 273.5 878V878Z" stroke="url(#paint6_linear_0_891)" stroke-width="13" stroke-linecap="round" stroke-linejoin="round"/>
<path d="M835 802.5V713.166C835 687.669 855.819 667 881.5 667V667C907.181 667 928 687.669 928 713.166V891.834C928 917.331 907.181 938 881.5 938V938V938C855.819 938 835 917.331 835 891.834V870.25" stroke="url(#paint7_linear_0_891)" stroke-width="13" stroke-linecap="round" stroke-linejoin="round"/>
<path d="M921 324.93V332.719C921 377.057 884.959 413 840.5 413V413C796.041 413 760 377.057 760 332.719V88.2811C760 43.943 796.041 8 840.5 8V8C884.959 8 921 43.943 921 88.2811V90.6775" stroke="#7000FF" stroke-width="13" stroke-linecap="round" stroke-linejoin="round"/>
<path d="M78.75 959H73.9392C39.7312 959 12 986.758 12 1021V1021C12 1055.24 39.7311 1083 73.9392 1083H217.061C251.269 1083 279 1055.24 279 1021V1021C279 986.758 251.269 959 217.061 959H212.25" stroke="url(#paint8_linear_0_891)" stroke-width="13" stroke-linecap="round" stroke-linejoin="round"/>
<path d="M758 667V898.637C758 967.873 814.636 1024 884.5 1024C954.364 1024 1011 967.873 1011 898.637V843.909" stroke="white" stroke-width="13" stroke-linecap="round" stroke-linejoin="round"/>
<path d="M504 1059H711.802C790.888 1059 855 1123.47 855 1203C855 1282.52 790.888 1347 711.802 1347H649.288" stroke="white" stroke-width="13" stroke-linecap="round" stroke-linejoin="round"/>
<path d="M593 708H543.813C510.779 708 484 681.137 484 648C484 614.863 510.779 588 543.813 588H642.187C675.221 588 702 614.863 702 648V653.33C702 683.524 677.6 708 647.5 708" stroke="#9844AF" stroke-width="13" stroke-linecap="round" stroke-linejoin="round"/>
<path d="M1096.5 479H1152.68C1190.41 479 1221 450.122 1221 414.5C1221 378.878 1190.41 350 1152.68 350H1040.32C1002.59 350 972 378.878 972 414.5" stroke="white" stroke-width="13" stroke-linecap="round" stroke-linejoin="round"/>
<path d="M682 210H547.319C462.091 210 393 279.396 393 365" stroke="white" stroke-width="13" stroke-linecap="round" stroke-linejoin="round"/>
<path d="M1456.5 1213.84C1488.26 1213.84 1514 1239.4 1514 1270.92C1514 1302.44 1488.26 1328 1456.5 1328C1424.74 1328 1399 1302.44 1399 1270.92V899" stroke="url(#paint9_linear_0_891)" stroke-width="13" stroke-linecap="round" stroke-linejoin="round"/>
<path d="M1026 1251C1026 1192.46 1072.85 1145 1130.63 1145H1315" stroke="white" stroke-width="13" stroke-linecap="round" stroke-linejoin="round"/>
<path d="M754 588H852.373C918.441 588 972 534.274 972 468" stroke="#9844AF" stroke-width="13" stroke-linecap="round" stroke-linejoin="round"/>
<path d="M1328 901V954.755C1328 1009.01 1284 1053 1229.71 1053H1153" stroke="#9844AF" stroke-width="13" stroke-linecap="round" stroke-linejoin="round"/>
<path d="M1514 633H1429.99C1369.24 633 1320 682.697 1320 744" stroke="#8000FF" stroke-width="13" stroke-linecap="round" stroke-linejoin="round"/>
<path d="M225 1419V1327.88C225 1275.42 265.975 1231.47 321 1220" stroke="white" stroke-width="13" stroke-linecap="round" stroke-linejoin="round"/>
<path d="M51.5 333C51.5 342.313 51.5 459.548 51.5 517" stroke="white" stroke-width="13" stroke-linecap="round" stroke-linejoin="round"/>
<path d="M443 1418.5C464.009 1418.5 692.389 1418.5 822 1418.5" stroke="white" stroke-width="13" stroke-linecap="round" stroke-linejoin="round"/>
<path d="M1095.5 756C1095.5 763.693 1095.5 860.539 1095.5 908" stroke="white" stroke-width="13" stroke-linecap="round" stroke-linejoin="round"/>
<path d="M941.5 1169C941.5 1172.14 941.5 1211.64 941.5 1231" stroke="white" stroke-width="13" stroke-linecap="round" stroke-linejoin="round"/>
<path d="M1246.5 594C1246.5 590.41 1243.59 587.5 1240 587.5C1236.41 587.5 1233.5 590.41 1233.5 594H1246.5ZM1125.58 959.605C1121.99 959.605 1119.08 962.515 1119.08 966.105C1119.08 969.695 1121.99 972.605 1125.58 972.605V959.605ZM961 1092.5C957.41 1092.5 954.5 1095.41 954.5 1099C954.5 1102.59 957.41 1105.5 961 1105.5V1092.5ZM1094.46 998.938C1094.46 995.348 1091.55 992.438 1087.96 992.438C1084.37 992.438 1081.46 995.348 1081.46 998.938H1094.46ZM1233.5 594V736.331H1246.5V594H1233.5ZM1233.5 736.331C1233.5 755.086 1218.17 770.366 1199.14 770.366V783.366C1225.24 783.366 1246.5 762.366 1246.5 736.331H1233.5ZM1199.14 770.366C1173.02 770.366 1151.77 791.384 1151.77 817.417H1164.77C1164.77 798.658 1180.11 783.366 1199.14 783.366V770.366ZM1151.77 817.417V825.828H1164.77V817.417H1151.77ZM1151.77 825.828C1151.77 851.86 1173.02 872.879 1199.14 872.879V859.879C1180.11 859.879 1164.77 844.586 1164.77 825.828H1151.77ZM1199.14 872.879C1218.16 872.879 1233.5 888.171 1233.5 906.931H1246.5C1246.5 880.897 1225.25 859.879 1199.14 859.879V872.879ZM1233.5 906.931V916.242H1246.5V906.931H1233.5ZM1233.5 916.242C1233.5 940.144 1213.96 959.605 1189.75 959.605V972.605C1221.05 972.605 1246.5 947.418 1246.5 916.242H1233.5ZM1189.75 959.605H1163.72V972.605H1189.75V959.605ZM1163.72 959.605H1125.58V972.605H1163.72V959.605ZM961 1105.5H987.776V1092.5H961V1105.5ZM987.776 1105.5C1046.69 1105.5 1094.46 1057.8 1094.46 998.938H1081.46C1081.46 1050.6 1039.52 1092.5 987.776 1092.5V1105.5Z" fill="url(#paint10_linear_0_891)"/>
<path d="M1488 396.921V417.203C1488 445.81 1464.74 469 1436.06 469V469C1407.37 469 1384.1 445.81 1384.1 417.203V400.403C1384.1 372.014 1361.02 349 1332.56 349V349C1304.08 349 1281 372.014 1281 400.403V421.079" stroke="url(#paint11_linear_0_891)" stroke-width="13" stroke-linecap="round" stroke-linejoin="round"/>
<path fill-rule="evenodd" clip-rule="evenodd" d="M1096 1292.97C1096 1252.67 1128.68 1220 1169 1220V1220C1209.31 1220 1242 1252.67 1242 1292.97V1346.03C1242 1386.33 1209.31 1419 1169 1419V1419C1128.68 1419 1096 1386.33 1096 1346.03V1292.97Z" stroke="#9844AF" stroke-width="13" stroke-linecap="round" stroke-linejoin="round"/>
<defs>
<linearGradient id="paint0_linear_0_891" x1="1571" y1="17" x2="1571" y2="162" gradientUnits="userSpaceOnUse">
<stop stop-color="#9E00FF"/>
<stop offset="1" stop-color="#6400FF" stop-opacity="0"/>
</linearGradient>
<linearGradient id="paint1_linear_0_891" x1="138.5" y1="1150" x2="138.5" y2="1419" gradientUnits="userSpaceOnUse">
<stop stop-color="#FF003D"/>
<stop offset="1" stop-color="#EB00FF"/>
</linearGradient>
<linearGradient id="paint2_linear_0_891" x1="705" y1="1145" x2="705" y2="1260" gradientUnits="userSpaceOnUse">
<stop stop-color="#9E00FF"/>
<stop offset="1" stop-color="#6400FF" stop-opacity="0"/>
</linearGradient>
<linearGradient id="paint3_linear_0_891" x1="191.5" y1="124" x2="191.5" y2="401" gradientUnits="userSpaceOnUse">
<stop stop-color="#FF003D"/>
<stop offset="1" stop-color="#EB00FF"/>
</linearGradient>
<linearGradient id="paint4_linear_0_891" x1="429" y1="8" x2="429" y2="161" gradientUnits="userSpaceOnUse">
<stop stop-color="#9E00FF"/>
<stop offset="1" stop-color="#6400FF" stop-opacity="0"/>
</linearGradient>
<linearGradient id="paint5_linear_0_891" x1="676.5" y1="298" x2="676.5" y2="504" gradientUnits="userSpaceOnUse">
<stop stop-color="#FF003D"/>
<stop offset="1" stop-color="#EB00FF"/>
</linearGradient>
<linearGradient id="paint6_linear_0_891" x1="273.5" y1="590" x2="273.5" y2="878" gradientUnits="userSpaceOnUse">
<stop stop-color="#FF003D"/>
<stop offset="1" stop-color="#EB00FF"/>
</linearGradient>
<linearGradient id="paint7_linear_0_891" x1="881.5" y1="667" x2="881.5" y2="938" gradientUnits="userSpaceOnUse">
<stop stop-color="#9E00FF"/>
<stop offset="1" stop-color="#6400FF" stop-opacity="0"/>
</linearGradient>
<linearGradient id="paint8_linear_0_891" x1="145.5" y1="959" x2="145.5" y2="1083" gradientUnits="userSpaceOnUse">
<stop stop-color="#FF003D"/>
<stop offset="1" stop-color="#EB00FF"/>
</linearGradient>
<linearGradient id="paint9_linear_0_891" x1="1456.5" y1="899" x2="1456.5" y2="1328" gradientUnits="userSpaceOnUse">
<stop stop-color="#9E00FF"/>
<stop offset="1" stop-color="#6400FF" stop-opacity="0"/>
</linearGradient>
<linearGradient id="paint10_linear_0_891" x1="1100.5" y1="594" x2="1100.5" y2="1099" gradientUnits="userSpaceOnUse">
<stop stop-color="#FF003D"/>
<stop offset="1" stop-color="#EB00FF"/>
</linearGradient>
<linearGradient id="paint11_linear_0_891" x1="1384.5" y1="349" x2="1384.5" y2="469" gradientUnits="userSpaceOnUse">
<stop stop-color="#9E00FF"/>
<stop offset="1" stop-color="#6400FF" stop-opacity="0"/>
</linearGradient>
</defs>
</svg>
